<svg xmlns="http://www.w3.org/2000/svg" width="390" height="780" viewBox="0 0 390 780"><rect width="390" height="780" fill="#f3f4f6"/><rect width="390" height="118" fill="#ffffff"/><text x="22" y="30" font-family="Inter, -apple-system, Segoe UI, Roboto, Helvetica, Arial, sans-serif" font-size="14" font-weight="600" fill="#111">9:41</text><rect x="330" y="20" width="26" height="12" rx="3" fill="none" stroke="#111"/><rect x="332" y="22" width="18" height="8" rx="1.5" fill="#111"/><rect x="22" y="56" width="18" height="2" fill="#111"/><rect x="22" y="62" width="18" height="2" fill="#111"/><rect x="22" y="68" width="18" height="2" fill="#111"/><text x="118" y="70" font-family="Inter, -apple-system, Segoe UI, Roboto, Helvetica, Arial, sans-serif" font-size="17" font-weight="800" fill="#111">amazon</text><text x="186" y="70" font-family="Inter, -apple-system, Segoe UI, Roboto, Helvetica, Arial, sans-serif" font-size="17" fill="#111">seller</text><path d="M120 76 q28 10 56 0" stroke="#ff9900" stroke-width="2.5" fill="none" stroke-linecap="round"/><rect width="390" y="88" height="76" fill="#f3f4f6"/><rect x="14" y="96" width="130" height="58" rx="6" fill="#fff" stroke="#e5e7eb"/><text x="79" y="122" text-anchor="middle" font-family="Inter, -apple-system, Segoe UI, Roboto, Helvetica, Arial, sans-serif" font-size="17" font-weight="700" fill="#111">26.23 USD</text><text x="79" y="142" text-anchor="middle" font-family="Inter, -apple-system, Segoe UI, Roboto, Helvetica, Arial, sans-serif" font-size="10.5" fill="#6b7280">Sales today so far</text><rect x="154" y="96" width="130" height="58" rx="6" fill="#fff" stroke="#e5e7eb"/><text x="219" y="122" text-anchor="middle" font-family="Inter, -apple-system, Segoe UI, Roboto, Helvetica, Arial, sans-serif" font-size="17" font-weight="700" fill="#111">1</text><text x="219" y="142" text-anchor="middle" font-family="Inter, -apple-system, Segoe UI, Roboto, Helvetica, Arial, sans-serif" font-size="10.5" fill="#6b7280">Units today so far</text><rect x="294" y="96" width="130" height="58" rx="6" fill="#fff" stroke="#e5e7eb"/><text x="359" y="122" text-anchor="middle" font-family="Inter, -apple-system, Segoe UI, Roboto, Helvetica, Arial, sans-serif" font-size="17" font-weight="700" fill="#111">—</text><text x="359" y="142" text-anchor="middle" font-family="Inter, -apple-system, Segoe UI, Roboto, Helvetica, Arial, sans-serif" font-size="10.5" fill="#6b7280">Open orders</text><rect x="0" y="172" width="390" height="352" fill="#fff"/><text x="22" y="200" font-family="Inter, -apple-system, Segoe UI, Roboto, Helvetica, Arial, sans-serif" font-size="14" font-weight="600" fill="#111">Product sales</text><text x="60" y="201" font-family="Inter, -apple-system, Segoe UI, Roboto, Helvetica, Arial, sans-serif" font-size="10" fill="#6b7280">⌄</text><text x="230" y="200" font-family="Inter, -apple-system, Segoe UI, Roboto, Helvetica, Arial, sans-serif" font-size="14" font-weight="600" fill="#111">This month</text><text x="330" y="201" font-family="Inter, -apple-system, Segoe UI, Roboto, Helvetica, Arial, sans-serif" font-size="10" fill="#6b7280">⌄</text><text x="22" y="236" font-family="Inter, -apple-system, Segoe UI, Roboto, Helvetica, Arial, sans-serif" font-size="19" font-weight="800" fill="#111">30.64K USD</text><text x="22" y="252" font-family="Inter, -apple-system, Segoe UI, Roboto, Helvetica, Arial, sans-serif" font-size="10.5" fill="#6b7280">This month</text><text x="160" y="236" font-family="Inter, -apple-system, Segoe UI, Roboto, Helvetica, Arial, sans-serif" font-size="14" font-weight="700" fill="#15803d">↑ 92%</text><text x="160" y="252" font-family="Inter, -apple-system, Segoe UI, Roboto, Helvetica, Arial, sans-serif" font-size="10.5" fill="#6b7280">Last month</text><text x="270" y="236" font-family="Inter, -apple-system, Segoe UI, Roboto, Helvetica, Arial, sans-serif" font-size="14" font-weight="700" fill="#15803d">↑ 48%</text><text x="270" y="252" font-family="Inter, -apple-system, Segoe UI, Roboto, Helvetica, Arial, sans-serif" font-size="10.5" fill="#6b7280">Last year</text><line x1="48" y1="272" x2="368" y2="272" stroke="#e5e7eb" stroke-width="1"/><line x1="48" y1="302" x2="368" y2="302" stroke="#e5e7eb" stroke-width="1"/><line x1="48" y1="332" x2="368" y2="332" stroke="#e5e7eb" stroke-width="1"/><line x1="48" y1="362" x2="368" y2="362" stroke="#e5e7eb" stroke-width="1"/><line x1="48" y1="392" x2="368" y2="392" stroke="#e5e7eb" stroke-width="1"/><line x1="48" y1="422" x2="368" y2="422" stroke="#e5e7eb" stroke-width="1"/><line x1="48" y1="452" x2="368" y2="452" stroke="#e5e7eb" stroke-width="1"/><text x="40" y="276" text-anchor="end" font-family="Inter, -apple-system, Segoe UI, Roboto, Helvetica, Arial, sans-serif" font-size="9" fill="#9ca3af">18k</text><text x="40" y="306" text-anchor="end" font-family="Inter, -apple-system, Segoe UI, Roboto, Helvetica, Arial, sans-serif" font-size="9" fill="#9ca3af">15k</text><text x="40" y="336" text-anchor="end" font-family="Inter, -apple-system, Segoe UI, Roboto, Helvetica, Arial, sans-serif" font-size="9" fill="#9ca3af">12k</text><text x="40" y="366" text-anchor="end" font-family="Inter, -apple-system, Segoe UI, Roboto, Helvetica, Arial, sans-serif" font-size="9" fill="#9ca3af">9k</text><text x="40" y="396" text-anchor="end" font-family="Inter, -apple-system, Segoe UI, Roboto, Helvetica, Arial, sans-serif" font-size="9" fill="#9ca3af">6k</text><text x="40" y="426" text-anchor="end" font-family="Inter, -apple-system, Segoe UI, Roboto, Helvetica, Arial, sans-serif" font-size="9" fill="#9ca3af">3k</text><text x="40" y="456" text-anchor="end" font-family="Inter, -apple-system, Segoe UI, Roboto, Helvetica, Arial, sans-serif" font-size="9" fill="#9ca3af">0</text><rect x="50.0" y="402.9" width="7.7" height="49.1" rx="2" fill="#f59e0b"/><rect x="60.6" y="384.5" width="7.7" height="67.5" rx="2" fill="#f59e0b"/><rect x="71.3" y="391.1" width="7.7" height="60.9" rx="2" fill="#f59e0b"/><rect x="81.9" y="436.9" width="7.7" height="15.1" rx="2" fill="#f59e0b"/><rect x="92.5" y="398.9" width="7.7" height="53.1" rx="2" fill="#f59e0b"/><rect x="103.2" y="365.6" width="7.7" height="86.4" rx="2" fill="#f59e0b"/><rect x="113.8" y="407.3" width="7.7" height="44.7" rx="2" fill="#f59e0b"/><rect x="124.4" y="377.8" width="7.7" height="74.2" rx="2" fill="#f59e0b"/><rect x="135.1" y="358.7" width="7.7" height="93.3" rx="2" fill="#f59e0b"/><rect x="145.7" y="341.6" width="7.7" height="110.4" rx="2" fill="#f59e0b"/><rect x="156.3" y="390.3" width="7.7" height="61.7" rx="2" fill="#f59e0b"/><rect x="166.9" y="347.9" width="7.7" height="104.1" rx="2" fill="#f59e0b"/><rect x="177.6" y="391.9" width="7.7" height="60.1" rx="2" fill="#f59e0b"/><rect x="188.2" y="340.8" width="7.7" height="111.2" rx="2" fill="#f59e0b"/><rect x="198.8" y="334.8" width="7.7" height="117.2" rx="2" fill="#f59e0b"/><rect x="209.5" y="350.1" width="7.7" height="101.9" rx="2" fill="#f59e0b"/><rect x="220.1" y="351.7" width="7.7" height="100.3" rx="2" fill="#f59e0b"/><rect x="230.7" y="384.5" width="7.7" height="67.5" rx="2" fill="#f59e0b"/><rect x="241.4" y="385.1" width="7.7" height="66.9" rx="2" fill="#f59e0b"/><rect x="252.0" y="366.3" width="7.7" height="85.7" rx="2" fill="#f59e0b"/><rect x="262.6" y="317.5" width="7.7" height="134.5" rx="2" fill="#f59e0b"/><rect x="273.3" y="363.6" width="7.7" height="88.4" rx="2" fill="#f59e0b"/><rect x="283.9" y="320.1" width="7.7" height="131.9" rx="2" fill="#f59e0b"/><rect x="294.5" y="330.5" width="7.7" height="121.5" rx="2" fill="#f59e0b"/><rect x="305.2" y="328.0" width="7.7" height="124.0" rx="2" fill="#f59e0b"/><rect x="315.8" y="319.6" width="7.7" height="132.4" rx="2" fill="#f59e0b"/><rect x="326.4" y="299.4" width="7.7" height="152.6" rx="2" fill="#f59e0b"/><rect x="337.1" y="309.2" width="7.7" height="142.8" rx="2" fill="#f59e0b"/><rect x="347.7" y="326.5" width="7.7" height="125.5" rx="2" fill="#f59e0b"/><rect x="358.3" y="302.2" width="7.7" height="149.8" rx="2" fill="#f59e0b"/><text x="52" y="470" font-family="Inter, -apple-system, Segoe UI, Roboto, Helvetica, Arial, sans-serif" font-size="9" fill="#6b7280">Dec 1</text><text x="104" y="470" font-family="Inter, -apple-system, Segoe UI, Roboto, Helvetica, Arial, sans-serif" font-size="9" fill="#6b7280">Dec 6</text><text x="156" y="470" font-family="Inter, -apple-system, Segoe UI, Roboto, Helvetica, Arial, sans-serif" font-size="9" fill="#6b7280">Dec 11</text><text x="208" y="470" font-family="Inter, -apple-system, Segoe UI, Roboto, Helvetica, Arial, sans-serif" font-size="9" fill="#6b7280">Dec 16</text><text x="260" y="470" font-family="Inter, -apple-system, Segoe UI, Roboto, Helvetica, Arial, sans-serif" font-size="9" fill="#6b7280">Dec 21</text><text x="312" y="470" font-family="Inter, -apple-system, Segoe UI, Roboto, Helvetica, Arial, sans-serif" font-size="9" fill="#6b7280">Dec 26</text><text x="364" y="470" font-family="Inter, -apple-system, Segoe UI, Roboto, Helvetica, Arial, sans-serif" font-size="9" fill="#6b7280">Dec 31</text><text x="368" y="500" text-anchor="end" font-family="Inter, -apple-system, Segoe UI, Roboto, Helvetica, Arial, sans-serif" font-size="10.5" fill="#6b7280">Updated 1:38 PM EST</text><rect x="0" y="540" width="390" height="40" fill="#fff"/><line x1="0" y1="580" x2="390" y2="580" stroke="#e5e7eb"/><rect x="22" y="554" width="12" height="12" rx="2" fill="none" stroke="#6b7280"/><text x="44" y="565" font-family="Inter, -apple-system, Segoe UI, Roboto, Helvetica, Arial, sans-serif" font-size="13" fill="#111">Add a Product</text><text x="360" y="565" font-family="Inter, -apple-system, Segoe UI, Roboto, Helvetica, Arial, sans-serif" font-size="13" fill="#9ca3af">›</text><rect x="0" y="580" width="390" height="40" fill="#fff"/><line x1="0" y1="620" x2="390" y2="620" stroke="#e5e7eb"/><rect x="22" y="594" width="12" height="12" rx="2" fill="none" stroke="#6b7280"/><text x="44" y="605" font-family="Inter, -apple-system, Segoe UI, Roboto, Helvetica, Arial, sans-serif" font-size="13" fill="#111">Manage Orders</text><rect x="316" y="590" width="34" height="20" rx="4" fill="#2563eb"/><text x="333" y="604" text-anchor="middle" font-family="Inter, -apple-system, Segoe UI, Roboto, Helvetica, Arial, sans-serif" font-size="11" font-weight="700" fill="#fff">104</text><text x="360" y="605" font-family="Inter, -apple-system, Segoe UI, Roboto, Helvetica, Arial, sans-serif" font-size="13" fill="#9ca3af">›</text><rect x="0" y="620" width="390" height="40" fill="#fff"/><line x1="0" y1="660" x2="390" y2="660" stroke="#e5e7eb"/><rect x="22" y="634" width="12" height="12" rx="2" fill="none" stroke="#6b7280"/><text x="44" y="645" font-family="Inter, -apple-system, Segoe UI, Roboto, Helvetica, Arial, sans-serif" font-size="13" fill="#111">Manage Returns</text><rect x="316" y="630" width="24" height="20" rx="4" fill="#2563eb"/><text x="328" y="644" text-anchor="middle" font-family="Inter, -apple-system, Segoe UI, Roboto, Helvetica, Arial, sans-serif" font-size="11" font-weight="700" fill="#fff">3</text><text x="360" y="645" font-family="Inter, -apple-system, Segoe UI, Roboto, Helvetica, Arial, sans-serif" font-size="13" fill="#9ca3af">›</text><rect x="0" y="660" width="390" height="40" fill="#fff"/><line x1="0" y1="700" x2="390" y2="700" stroke="#e5e7eb"/><rect x="22" y="674" width="12" height="12" rx="2" fill="none" stroke="#6b7280"/><text x="44" y="685" font-family="Inter, -apple-system, Segoe UI, Roboto, Helvetica, Arial, sans-serif" font-size="13" fill="#111">Manage Case Logs</text><text x="360" y="685" font-family="Inter, -apple-system, Segoe UI, Roboto, Helvetica, Arial, sans-serif" font-size="13" fill="#9ca3af">›</text><rect x="0" y="700" width="390" height="40" fill="#fff"/><line x1="0" y1="740" x2="390" y2="740" stroke="#e5e7eb"/><rect x="22" y="714" width="12" height="12" rx="2" fill="none" stroke="#6b7280"/><text x="44" y="725" font-family="Inter, -apple-system, Segoe UI, Roboto, Helvetica, Arial, sans-serif" font-size="13" fill="#111">Manage Payments</text><text x="360" y="725" font-family="Inter, -apple-system, Segoe UI, Roboto, Helvetica, Arial, sans-serif" font-size="13" fill="#9ca3af">›</text><rect x="0" y="740" width="390" height="40" fill="#fff"/><line x1="0" y1="780" x2="390" y2="780" stroke="#e5e7eb"/><rect x="22" y="754" width="12" height="12" rx="2" fill="none" stroke="#6b7280"/><text x="44" y="765" font-family="Inter, -apple-system, Segoe UI, Roboto, Helvetica, Arial, sans-serif" font-size="13" fill="#111">Communications</text><rect x="316" y="750" width="24" height="20" rx="4" fill="#2563eb"/><text x="328" y="764" text-anchor="middle" font-family="Inter, -apple-system, Segoe UI, Roboto, Helvetica, Arial, sans-serif" font-size="11" font-weight="700" fill="#fff">2</text><text x="360" y="765" font-family="Inter, -apple-system, Segoe UI, Roboto, Helvetica, Arial, sans-serif" font-size="13" fill="#9ca3af">›</text><g opacity="0.07" font-family="Inter, -apple-system, Segoe UI, Roboto, Helvetica, Arial, sans-serif" font-weight="800" font-size="43" fill="#0d1321" transform="rotate(-24 195 390)"><text x="195" y="403.92857142857144" text-anchor="middle">SAMPLE DATA</text></g></svg>