<svg xmlns="http://www.w3.org/2000/svg" width="800" height="620" viewBox="0 0 800 620"><rect width="800" height="620" fill="#f5f5f7"/><rect width="180" height="620" fill="#161823"/><text x="24" y="42" font-family="Inter, -apple-system, Segoe UI, Roboto, Helvetica, Arial, sans-serif" font-size="14" font-weight="800" fill="#fff">TikTok Shop</text><text x="24" y="60" font-family="Inter, -apple-system, Segoe UI, Roboto, Helvetica, Arial, sans-serif" font-size="9.5" fill="#9ca3af" letter-spacing="1">SELLER CENTER</text><text x="24" y="99" font-family="Inter, -apple-system, Segoe UI, Roboto, Helvetica, Arial, sans-serif" font-size="12.5" fill="#9ca3af">Home</text><rect x="12" y="118" width="156" height="30" rx="6" fill="#fe2c55" opacity="0.18"/><text x="24" y="139" font-family="Inter, -apple-system, Segoe UI, Roboto, Helvetica, Arial, sans-serif" font-size="12.5" fill="#fff">Analytics</text><text x="24" y="179" font-family="Inter, -apple-system, Segoe UI, Roboto, Helvetica, Arial, sans-serif" font-size="12.5" fill="#9ca3af">Orders</text><text x="24" y="219" font-family="Inter, -apple-system, Segoe UI, Roboto, Helvetica, Arial, sans-serif" font-size="12.5" fill="#9ca3af">Products</text><text x="24" y="259" font-family="Inter, -apple-system, Segoe UI, Roboto, Helvetica, Arial, sans-serif" font-size="12.5" fill="#9ca3af">Promotions</text><text x="24" y="299" font-family="Inter, -apple-system, Segoe UI, Roboto, Helvetica, Arial, sans-serif" font-size="12.5" fill="#9ca3af">Affiliate</text><text x="24" y="339" font-family="Inter, -apple-system, Segoe UI, Roboto, Helvetica, Arial, sans-serif" font-size="12.5" fill="#9ca3af">Finance</text><text x="208" y="48" font-family="Inter, -apple-system, Segoe UI, Roboto, Helvetica, Arial, sans-serif" font-size="20" font-weight="700" fill="#111">Shop performance</text><text x="772" y="48" text-anchor="end" font-family="Inter, -apple-system, Segoe UI, Roboto, Helvetica, Arial, sans-serif" font-size="12" fill="#6b7280">Last 30 days ▾</text><rect x="208" y="72" width="134" height="86" rx="10" fill="#fff" stroke="#e5e7eb"/><text x="222" y="96" font-family="Inter, -apple-system, Segoe UI, Roboto, Helvetica, Arial, sans-serif" font-size="11" fill="#6b7280">GMV</text><text x="222" y="124" font-family="Inter, -apple-system, Segoe UI, Roboto, Helvetica, Arial, sans-serif" font-size="19" font-weight="700" fill="#111">$27,480</text><text x="222" y="144" font-family="Inter, -apple-system, Segoe UI, Roboto, Helvetica, Arial, sans-serif" font-size="10.5" fill="#15803d">↑ 68%</text><rect x="354" y="72" width="134" height="86" rx="10" fill="#fff" stroke="#e5e7eb"/><text x="368" y="96" font-family="Inter, -apple-system, Segoe UI, Roboto, Helvetica, Arial, sans-serif" font-size="11" fill="#6b7280">Orders</text><text x="368" y="124" font-family="Inter, -apple-system, Segoe UI, Roboto, Helvetica, Arial, sans-serif" font-size="19" font-weight="700" fill="#111">1,932</text><text x="368" y="144" font-family="Inter, -apple-system, Segoe UI, Roboto, Helvetica, Arial, sans-serif" font-size="10.5" fill="#15803d">↑ 40%</text><rect x="500" y="72" width="134" height="86" rx="10" fill="#fff" stroke="#e5e7eb"/><text x="514" y="96" font-family="Inter, -apple-system, Segoe UI, Roboto, Helvetica, Arial, sans-serif" font-size="11" fill="#6b7280">Buyers</text><text x="514" y="124" font-family="Inter, -apple-system, Segoe UI, Roboto, Helvetica, Arial, sans-serif" font-size="19" font-weight="700" fill="#111">1,610</text><text x="514" y="144" font-family="Inter, -apple-system, Segoe UI, Roboto, Helvetica, Arial, sans-serif" font-size="10.5" fill="#15803d">↑ 43%</text><rect x="646" y="72" width="134" height="86" rx="10" fill="#fff" stroke="#e5e7eb"/><text x="660" y="96" font-family="Inter, -apple-system, Segoe UI, Roboto, Helvetica, Arial, sans-serif" font-size="11" fill="#6b7280">Video GMV</text><text x="660" y="124" font-family="Inter, -apple-system, Segoe UI, Roboto, Helvetica, Arial, sans-serif" font-size="19" font-weight="700" fill="#111">$19,120</text><text x="660" y="144" font-family="Inter, -apple-system, Segoe UI, Roboto, Helvetica, Arial, sans-serif" font-size="10.5" fill="#15803d">↑ 118%</text><rect x="208" y="176" width="564" height="270" rx="10" fill="#fff" stroke="#e5e7eb"/><text x="228" y="206" font-family="Inter, -apple-system, Segoe UI, Roboto, Helvetica, Arial, sans-serif" font-size="13" font-weight="700" fill="#111">GMV trend</text><circle cx="700" cy="202" r="4" fill="#fe2c55"/><text x="712" y="206" font-family="Inter, -apple-system, Segoe UI, Roboto, Helvetica, Arial, sans-serif" font-size="10.5" fill="#6b7280">GMV</text><line x1="250" y1="228" x2="750" y2="228" stroke="#e5e7eb" stroke-width="1"/><line x1="250" y1="273" x2="750" y2="273" stroke="#e5e7eb" stroke-width="1"/><line x1="250" y1="318" x2="750" y2="318" stroke="#e5e7eb" stroke-width="1"/><line x1="250" y1="363" x2="750" y2="363" stroke="#e5e7eb" stroke-width="1"/><line x1="250" y1="408" x2="750" y2="408" stroke="#e5e7eb" stroke-width="1"/><path d="M250.0 372.0 L267.2 349.8 L284.5 366.9 L301.7 351.9 L319.0 357.4 L336.2 372.5 L353.4 340.0 L370.7 327.9 L387.9 326.9 L405.2 325.6 L422.4 356.0 L439.7 330.3 L456.9 328.0 L474.1 325.2 L491.4 318.6 L508.6 310.5 L525.9 306.7 L543.1 305.7 L560.3 286.9 L577.6 313.7 L594.8 314.3 L612.1 313.7 L629.3 308.7 L646.6 300.9 L663.8 281.7 L681.0 286.1 L698.3 278.4 L715.5 272.4 L732.8 253.2 L750.0 249.5 L750 408 L250 408 Z" fill="#fe2c55" opacity="0.12"/><path d="M250.0 372.0 L267.2 349.8 L284.5 366.9 L301.7 351.9 L319.0 357.4 L336.2 372.5 L353.4 340.0 L370.7 327.9 L387.9 326.9 L405.2 325.6 L422.4 356.0 L439.7 330.3 L456.9 328.0 L474.1 325.2 L491.4 318.6 L508.6 310.5 L525.9 306.7 L543.1 305.7 L560.3 286.9 L577.6 313.7 L594.8 314.3 L612.1 313.7 L629.3 308.7 L646.6 300.9 L663.8 281.7 L681.0 286.1 L698.3 278.4 L715.5 272.4 L732.8 253.2 L750.0 249.5" fill="none" stroke="#fe2c55" stroke-width="2.5" stroke-linejoin="round"/><text x="250" y="430" font-family="Inter, -apple-system, Segoe UI, Roboto, Helvetica, Arial, sans-serif" font-size="10" fill="#6b7280">Day 1</text><text x="375" y="430" font-family="Inter, -apple-system, Segoe UI, Roboto, Helvetica, Arial, sans-serif" font-size="10" fill="#6b7280">Day 8</text><text x="500" y="430" font-family="Inter, -apple-system, Segoe UI, Roboto, Helvetica, Arial, sans-serif" font-size="10" fill="#6b7280">Day 15</text><text x="625" y="430" font-family="Inter, -apple-system, Segoe UI, Roboto, Helvetica, Arial, sans-serif" font-size="10" fill="#6b7280">Day 22</text><text x="750" y="430" font-family="Inter, -apple-system, Segoe UI, Roboto, Helvetica, Arial, sans-serif" font-size="10" fill="#6b7280">Day 30</text><rect x="208" y="462" width="564" height="136" rx="10" fill="#fff" stroke="#e5e7eb"/><text x="228" y="492" font-family="Inter, -apple-system, Segoe UI, Roboto, Helvetica, Arial, sans-serif" font-size="13" font-weight="700" fill="#111">Top products</text><text x="228" y="518" font-family="Inter, -apple-system, Segoe UI, Roboto, Helvetica, Arial, sans-serif" font-size="11.5" fill="#111">Product A</text><rect x="320" y="509" width="430" height="10" rx="5" fill="#f3f4f6"/><rect x="320" y="509" width="387" height="10" rx="5" fill="#fe2c55"/><text x="228" y="544" font-family="Inter, -apple-system, Segoe UI, Roboto, Helvetica, Arial, sans-serif" font-size="11.5" fill="#111">Product B</text><rect x="320" y="535" width="430" height="10" rx="5" fill="#f3f4f6"/><rect x="320" y="535" width="266.6" height="10" rx="5" fill="#fe2c55"/><text x="228" y="570" font-family="Inter, -apple-system, Segoe UI, Roboto, Helvetica, Arial, sans-serif" font-size="11.5" fill="#111">Product C</text><rect x="320" y="561" width="430" height="10" rx="5" fill="#f3f4f6"/><rect x="320" y="561" width="176.29999999999998" height="10" rx="5" fill="#fe2c55"/><g opacity="0.07" font-family="Inter, -apple-system, Segoe UI, Roboto, Helvetica, Arial, sans-serif" font-weight="800" font-size="89" fill="#0d1321" transform="rotate(-24 400 310)"><text x="400" y="338.57142857142856" text-anchor="middle">SAMPLE DATA</text></g></svg>